<svg id="visual" viewBox="0 0 1200 2400" width="1200" height="2400" xmlns="http://www.w3.org/2000/svg" xmlns:xlink="http://www.w3.org/1999/xlink" version="1.1"><rect x="0" y="0" width="1200" height="1800" fill="#4F5069"></rect><path d="M0 186L25 250.3C50 314.7 100 443.3 150 507.8C200 572.3 250 572.7 300 577C350 581.3 400 589.7 450 606.7C500 623.7 550 649.3 600 662C650 674.7 700 674.3 750 630.5C800 586.7 850 499.3 900 480.2C950 461 1000 510 1050 495.3C1100 480.7 1150 402.3 1175 363.2L1200 324L1200 1801L1175 1801C1150 1801 1100 1801 1050 1801C1000 1801 950 1801 900 1801C850 1801 800 1801 750 1801C700 1801 650 1801 600 1801C550 1801 500 1801 450 1801C400 1801 350 1801 300 1801C250 1801 200 1801 150 1801C100 1801 50 1801 25 1801L0 1801Z" fill="#505067"></path><path d="M0 434L25 453.5C50 473 100 512 150 533.7C200 555.3 250 559.7 300 542.5C350 525.3 400 486.7 450 475.8C500 465 550 482 600 536.8C650 591.7 700 684.3 750 676.5C800 668.7 850 560.3 900 525.5C950 490.7 1000 529.3 1050 530C1100 530.7 1150 493.3 1175 474.7L1200 456L1200 1801L1175 1801C1150 1801 1100 1801 1050 1801C1000 1801 950 1801 900 1801C850 1801 800 1801 750 1801C700 1801 650 1801 600 1801C550 1801 500 1801 450 1801C400 1801 350 1801 300 1801C250 1801 200 1801 150 1801C100 1801 50 1801 25 1801L0 1801Z" fill="#4a4a60"></path><path d="M0 475L25 506.5C50 538 100 601 150 621.5C200 642 250 620 300 652.3C350 684.7 400 771.3 450 806C500 840.7 550 823.3 600 827.2C650 831 700 856 750 813.2C800 770.3 850 659.7 900 638.8C950 618 1000 687 1050 728.8C1100 770.7 1150 785.3 1175 792.7L1200 800L1200 1801L1175 1801C1150 1801 1100 1801 1050 1801C1000 1801 950 1801 900 1801C850 1801 800 1801 750 1801C700 1801 650 1801 600 1801C550 1801 500 1801 450 1801C400 1801 350 1801 300 1801C250 1801 200 1801 150 1801C100 1801 50 1801 25 1801L0 1801Z" fill="#434359"></path><path d="M0 934L25 922.7C50 911.3 100 888.7 150 843.2C200 797.7 250 729.3 300 737.3C350 745.3 400 829.7 450 882.7C500 935.7 550 957.3 600 945.2C650 933 700 887 750 877.5C800 868 850 895 900 889C950 883 1000 844 1050 811C1100 778 1150 751 1175 737.5L1200 724L1200 1801L1175 1801C1150 1801 1100 1801 1050 1801C1000 1801 950 1801 900 1801C850 1801 800 1801 750 1801C700 1801 650 1801 600 1801C550 1801 500 1801 450 1801C400 1801 350 1801 300 1801C250 1801 200 1801 150 1801C100 1801 50 1801 25 1801L0 1801Z" fill="#3d3d52"></path><path d="M0 1030L25 1037.7C50 1045.3 100 1060.7 150 1016.7C200 972.7 250 869.3 300 809.2C350 749 400 732 450 758.3C500 784.7 550 854.3 600 852.2C650 850 700 776 750 765.3C800 754.7 850 807.3 900 806.3C950 805.3 1000 750.7 1050 732.8C1100 715 1150 734 1175 743.5L1200 753L1200 1801L1175 1801C1150 1801 1100 1801 1050 1801C1000 1801 950 1801 900 1801C850 1801 800 1801 750 1801C700 1801 650 1801 600 1801C550 1801 500 1801 450 1801C400 1801 350 1801 300 1801C250 1801 200 1801 150 1801C100 1801 50 1801 25 1801L0 1801Z" fill="#37374b"></path><path d="M0 1042L25 1004.3C50 966.7 100 891.3 150 865.2C200 839 250 862 300 875.7C350 889.3 400 893.7 450 928.3C500 963 550 1028 600 1017C650 1006 700 919 750 915.7C800 912.3 850 992.7 900 1046.3C950 1100 1000 1127 1050 1131.2C1100 1135.3 1150 1116.7 1175 1107.3L1200 1098L1200 1801L1175 1801C1150 1801 1100 1801 1050 1801C1000 1801 950 1801 900 1801C850 1801 800 1801 750 1801C700 1801 650 1801 600 1801C550 1801 500 1801 450 1801C400 1801 350 1801 300 1801C250 1801 200 1801 150 1801C100 1801 50 1801 25 1801L0 1801Z" fill="#313144"></path><path d="M0 1218L25 1210.5C50 1203 100 1188 150 1147.7C200 1107.3 250 1041.7 300 1038.5C350 1035.3 400 1094.7 450 1109.8C500 1125 550 1096 600 1076.2C650 1056.3 700 1045.7 750 1043.3C800 1041 850 1047 900 1045.2C950 1043.3 1000 1033.7 1050 1015.2C1100 996.7 1150 969.3 1175 955.7L1200 942L1200 1801L1175 1801C1150 1801 1100 1801 1050 1801C1000 1801 950 1801 900 1801C850 1801 800 1801 750 1801C700 1801 650 1801 600 1801C550 1801 500 1801 450 1801C400 1801 350 1801 300 1801C250 1801 200 1801 150 1801C100 1801 50 1801 25 1801L0 1801Z" fill="#2d2d3f"></path><path d="M0 1134L25 1138.3C50 1142.7 100 1151.3 150 1174.7C200 1198 250 1236 300 1237.3C350 1238.7 400 1203.3 450 1201.3C500 1199.3 550 1230.7 600 1238C650 1245.3 700 1228.7 750 1217.7C800 1206.7 850 1201.3 900 1198.8C950 1196.3 1000 1196.7 1050 1222.7C1100 1248.7 1150 1300.3 1175 1326.2L1200 1352L1200 1801L1175 1801C1150 1801 1100 1801 1050 1801C1000 1801 950 1801 900 1801C850 1801 800 1801 750 1801C700 1801 650 1801 600 1801C550 1801 500 1801 450 1801C400 1801 350 1801 300 1801C250 1801 200 1801 150 1801C100 1801 50 1801 25 1801L0 1801Z" fill="#2b2b3c"></path><path d="M0 1241L25 1277C50 1313 100 1385 150 1390C200 1395 250 1333 300 1332.3C350 1331.7 400 1392.3 450 1385.3C500 1378.3 550 1303.7 600 1280.7C650 1257.7 700 1286.3 750 1284C800 1281.7 850 1248.3 900 1270.2C950 1292 1000 1369 1050 1377.3C1100 1385.7 1150 1325.3 1175 1295.2L1200 1265L1200 1801L1175 1801C1150 1801 1100 1801 1050 1801C1000 1801 950 1801 900 1801C850 1801 800 1801 750 1801C700 1801 650 1801 600 1801C550 1801 500 1801 450 1801C400 1801 350 1801 300 1801C250 1801 200 1801 150 1801C100 1801 50 1801 25 1801L0 1801Z" fill="#292939"></path><path d="M0 1423L25 1411.8C50 1400.7 100 1378.3 150 1384.8C200 1391.3 250 1426.7 300 1448C350 1469.3 400 1476.7 450 1469.7C500 1462.7 550 1441.3 600 1444.7C650 1448 700 1476 750 1495.5C800 1515 850 1526 900 1505.3C950 1484.7 1000 1432.3 1050 1417.7C1100 1403 1150 1426 1175 1437.5L1200 1449L1200 1801L1175 1801C1150 1801 1100 1801 1050 1801C1000 1801 950 1801 900 1801C850 1801 800 1801 750 1801C700 1801 650 1801 600 1801C550 1801 500 1801 450 1801C400 1801 350 1801 300 1801C250 1801 200 1801 150 1801C100 1801 50 1801 25 1801L0 1801Z" fill="#272736"></path><path d="M0 1611L25 1588.2C50 1565.3 100 1519.7 150 1497C200 1474.3 250 1474.7 300 1499.7C350 1524.7 400 1574.3 450 1575.2C500 1576 550 1528 600 1506.7C650 1485.3 700 1490.7 750 1498.7C800 1506.7 850 1517.3 900 1523.7C950 1530 1000 1532 1050 1545.5C1100 1559 1150 1584 1175 1596.5L1200 1609L1200 1801L1175 1801C1150 1801 1100 1801 1050 1801C1000 1801 950 1801 900 1801C850 1801 800 1801 750 1801C700 1801 650 1801 600 1801C550 1801 500 1801 450 1801C400 1801 350 1801 300 1801C250 1801 200 1801 150 1801C100 1801 50 1801 25 1801L0 1801Z" fill="#252533"></path><path d="M0 1615L25 1621.2C50 1627.3 100 1639.7 150 1645.3C200 1651 250 1650 300 1643.7C350 1637.3 400 1625.7 450 1622.3C500 1619 550 1624 600 1629.8C650 1635.7 700 1642.3 750 1649C800 1655.7 850 1662.3 900 1659.2C950 1656 1000 1643 1050 1635.8C1100 1628.7 1150 1627.3 1175 1626.7L1200 1626L1200 1801L1175 1801C1150 1801 1100 1801 1050 1801C1000 1801 950 1801 900 1801C850 1801 800 1801 750 1801C700 1801 650 1801 600 1801C550 1801 500 1801 450 1801C400 1801 350 1801 300 1801C250 1801 200 1801 150 1801C100 1801 50 1801 25 1801L0 1801Z" fill="#232330"></path></svg>