<svg id="visual" viewBox="0 0 1600 4000" width="1600" height="4000" xmlns="http://www.w3.org/2000/svg" xmlns:xlink="http://www.w3.org/1999/xlink" version="1.1"><path d="M0 881L66.7 947.7C133.3 1014.3 266.7 1147.7 400 1127.7C533.3 1107.7 666.7 934.3 800 834.3C933.3 734.3 1066.7 707.7 1200 641C1333.3 574.3 1466.7 467.7 1533.3 414.3L1600 361L1600 0L1533.3 0C1466.7 0 1333.3 0 1200 0C1066.7 0 933.3 0 800 0C666.7 0 533.3 0 400 0C266.7 0 133.3 0 66.7 0L0 0Z" fill="#4f5069"></path><path d="M0 1401L66.7 1434.3C133.3 1467.7 266.7 1534.3 400 1474.3C533.3 1414.3 666.7 1227.7 800 1141C933.3 1054.3 1066.7 1067.7 1200 1054.3C1333.3 1041 1466.7 1001 1533.3 981L1600 961L1600 359L1533.3 412.3C1466.7 465.7 1333.3 572.3 1200 639C1066.7 705.7 933.3 732.3 800 832.3C666.7 932.3 533.3 1105.7 400 1125.7C266.7 1145.7 133.3 1012.3 66.7 945.7L0 879Z" fill="#484964"></path><path d="M0 1521L66.7 1547.7C133.3 1574.3 266.7 1627.7 400 1607.7C533.3 1587.7 666.7 1494.3 800 1467.7C933.3 1441 1066.7 1481 1200 1434.3C1333.3 1387.7 1466.7 1254.3 1533.3 1187.7L1600 1121L1600 959L1533.3 979C1466.7 999 1333.3 1039 1200 1052.3C1066.7 1065.7 933.3 1052.3 800 1139C666.7 1225.7 533.3 1412.3 400 1472.3C266.7 1532.3 133.3 1465.7 66.7 1432.3L0 1399Z" fill="#42425e"></path><path d="M0 1761L66.7 1787.7C133.3 1814.3 266.7 1867.7 400 1847.7C533.3 1827.7 666.7 1734.3 800 1687.7C933.3 1641 1066.7 1641 1200 1567.7C1333.3 1494.3 1466.7 1347.7 1533.3 1274.3L1600 1201L1600 1119L1533.3 1185.7C1466.7 1252.3 1333.3 1385.7 1200 1432.3C1066.7 1479 933.3 1439 800 1465.7C666.7 1492.3 533.3 1585.7 400 1605.7C266.7 1625.7 133.3 1572.3 66.7 1545.7L0 1519Z" fill="#3b3b59"></path><path d="M0 2001L66.7 2034.3C133.3 2067.7 266.7 2134.3 400 2087.7C533.3 2041 666.7 1881 800 1801C933.3 1721 1066.7 1721 1200 1681C1333.3 1641 1466.7 1561 1533.3 1521L1600 1481L1600 1199L1533.3 1272.3C1466.7 1345.7 1333.3 1492.3 1200 1565.7C1066.7 1639 933.3 1639 800 1685.7C666.7 1732.3 533.3 1825.7 400 1845.7C266.7 1865.7 133.3 1812.3 66.7 1785.7L0 1759Z" fill="#343553"></path><path d="M0 2641L66.7 2614.3C133.3 2587.7 266.7 2534.3 400 2581C533.3 2627.7 666.7 2774.3 800 2814.3C933.3 2854.3 1066.7 2787.7 1200 2734.3C1333.3 2681 1466.7 2641 1533.3 2621L1600 2601L1600 1479L1533.3 1519C1466.7 1559 1333.3 1639 1200 1679C1066.7 1719 933.3 1719 800 1799C666.7 1879 533.3 2039 400 2085.7C266.7 2132.3 133.3 2065.7 66.7 2032.3L0 1999Z" fill="#2e2e4e"></path><path d="M0 2921L66.7 2901C133.3 2881 266.7 2841 400 2854.3C533.3 2867.7 666.7 2934.3 800 2947.7C933.3 2961 1066.7 2921 1200 2907.7C1333.3 2894.3 1466.7 2907.7 1533.3 2914.3L1600 2921L1600 2599L1533.3 2619C1466.7 2639 1333.3 2679 1200 2732.3C1066.7 2785.7 933.3 2852.3 800 2812.3C666.7 2772.3 533.3 2625.7 400 2579C266.7 2532.3 133.3 2585.7 66.7 2612.3L0 2639Z" fill="#282849"></path><path d="M0 3001L66.7 3007.7C133.3 3014.3 266.7 3027.7 400 3061C533.3 3094.3 666.7 3147.7 800 3154.3C933.3 3161 1066.7 3121 1200 3107.7C1333.3 3094.3 1466.7 3107.7 1533.3 3114.3L1600 3121L1600 2919L1533.3 2912.3C1466.7 2905.7 1333.3 2892.3 1200 2905.7C1066.7 2919 933.3 2959 800 2945.7C666.7 2932.3 533.3 2865.7 400 2852.3C266.7 2839 133.3 2879 66.7 2899L0 2919Z" fill="#222143"></path><path d="M0 3361L66.7 3347.7C133.3 3334.3 266.7 3307.7 400 3301C533.3 3294.3 666.7 3307.7 800 3294.3C933.3 3281 1066.7 3241 1200 3281C1333.3 3321 1466.7 3441 1533.3 3501L1600 3561L1600 3119L1533.3 3112.3C1466.7 3105.7 1333.3 3092.3 1200 3105.7C1066.7 3119 933.3 3159 800 3152.3C666.7 3145.7 533.3 3092.3 400 3059C266.7 3025.7 133.3 3012.3 66.7 3005.7L0 2999Z" fill="#1b1b3e"></path><path d="M0 3921L66.7 3894.3C133.3 3867.7 266.7 3814.3 400 3781C533.3 3747.7 666.7 3734.3 800 3721C933.3 3707.7 1066.7 3694.3 1200 3701C1333.3 3707.7 1466.7 3734.3 1533.3 3747.7L1600 3761L1600 3559L1533.3 3499C1466.7 3439 1333.3 3319 1200 3279C1066.7 3239 933.3 3279 800 3292.3C666.7 3305.7 533.3 3292.3 400 3299C266.7 3305.7 133.3 3332.3 66.7 3345.7L0 3359Z" fill="#151538"></path><path d="M0 4001L66.7 4001C133.3 4001 266.7 4001 400 4001C533.3 4001 666.7 4001 800 4001C933.3 4001 1066.7 4001 1200 4001C1333.3 4001 1466.7 4001 1533.3 4001L1600 4001L1600 3759L1533.3 3745.7C1466.7 3732.3 1333.3 3705.7 1200 3699C1066.7 3692.3 933.3 3705.7 800 3719C666.7 3732.3 533.3 3745.7 400 3779C266.7 3812.3 133.3 3865.7 66.7 3892.3L0 3919Z" fill="#0f0f33"></path></svg>